PathFileType	4	(X/Y/Z)	../Python\running\Running01\task.trc
DataRate	CameraRate	NumFrames	NumMarkers	Units	OrigDataRate	OrigDataStartFrame	OrigNumFrames
200.000000	200.000000	4	30	mm	200.000000	147	169
Frame#	Time	C7			RBAK			CLAV			STRN			RASI			LASI			RTH2			RTH3			RTB2			RHEE			RD5M			RTOE			LTH2			LTH3			LTB2			LTB3			LHEE			LTOE			LD5M			RPSI			RTH1			RTB1			RTB3			LPSI			PE03			T10			PE01			PE02			LTH1			LTB1			
		X1	Y1	Z1	X2	Y2	Z2	X3	Y3	Z3	X4	Y4	Z4	X5	Y5	Z5	X6	Y6	Z6	X7	Y7	Z7	X8	Y8	Z8	X9	Y9	Z9	X10	Y10	Z10	X11	Y11	Z11	X12	Y12	Z12	X13	Y13	Z13	X14	Y14	Z14	X15	Y15	Z15	X16	Y16	Z16	X17	Y17	Z17	X18	Y18	Z18	X19	Y19	Z19	X20	Y20	Z20	X21	Y21	Z21	X22	Y22	Z22	X23	Y23	Z23	X24	Y24	Z24	X25	Y25	Z25	X26	Y26	Z26	X27	Y27	Z27	X28	Y28	Z28	X29	Y29	Z29	X30	Y30	Z30	

148	0.735	1105.42626953125	1372.754516601563	158.0156250000001	1119.221435546875	1294.588745117188	293.4792480468751	1213.385131835938	1278.754638671875	110.5268173217774	1261.364990234375	1099.432006835938	115.3955535888672	1209.040283203125	870.4074096679692	293.5057373046876	1218.159912109375	895.7528686523442	78.0796813964844	1013.183654785157	533.7727661132815	275.2999877929689	1059.48779296875	572.8615722656252	286.7574768066407	803.9295043945317	374.8995666503907	234.8885650634767	625.921325683594	300.6949157714845	125.088233947754	619.889831542969	154.5275878906251	194.2142028808595	645.4680786132815	127.197608947754	147.6797790527344	1221.289428710938	582.1395263671877	43.47299575805665	1276.852294921875	636.4893798828127	29.01987648010255	1349.5078125	248.3536071777345	60.44276809692386	1374.820922851563	291.2221679687501	59.23300552368167	1383.216064453125	88.64719390869143	118.4438781738282	1572.553833007813	94.10128021240237	122.6972351074219	1536.115600585938	69.7158126831055	80.39145660400393	1033.989868164063	968.8435058593755	237.4419097900392	1026.119873046875	609.0674438476565	298.0872192382814	865.4145507812505	366.095184326172	236.1991729736329	797.1564941406255	327.2138977050782	219.4915924072267	1028.248657226563	965.2716674804692	153.0188751220704	1016.596008300782	950.272338867188	160.3351593017579	1054.223999023438	1089.380004882813	207.3192291259767	1048.893310546875	996.7742309570317	196.7598419189454	1009.311584472657	944.7062377929692	210.2094268798829	1227.56201171875	640.8120727539065	26.23438262939455	1321.56005859375	322.067596435547	50.41598129272464	
149	0.74	1122.817138671875	1371.316040039063	157.6471099853516	1136.769165039063	1293.593017578125	293.3568420410157	1230.601684570313	1277.341186523438	110.3301086425782	1278.46923828125	1098.173461914063	115.7222518920899	1227.1904296875	869.968627929688	293.7013244628907	1235.411987304688	894.4990234375005	78.09026336669925	1035.390991210938	530.6597290039065	276.8504943847657	1081.419921875	570.2703857421877	287.538543701172	823.7096557617192	376.8615112304689	235.4705200195314	643.080993652344	306.6474914550782	124.1966171264649	635.6841430664065	161.8212127685547	195.8257751464845	661.3757324218752	133.4470367431641	150.1776733398438	1239.373046875	580.2075195312502	44.06793212890626	1294.700073242188	634.310729980469	28.25464248657228	1365.919067382813	247.1077728271486	61.49761199951175	1391.518188476563	289.6488342285157	60.79619598388675	1397.487548828125	87.07991027832034	120.3105239868165	1586.432250976563	90.18659210205081	124.9186782836915	1550.072753906251	65.9026794433594	83.04665374755862	1051.257690429688	967.141723632813	237.339080810547	1047.800537109375	606.040222167969	299.5879516601564	884.7418823242192	366.300506591797	237.3279418945314	815.5151977539067	329.4294738769532	220.1059417724611	1045.390380859375	963.1267700195317	152.9385833740235	1033.807495117188	947.9088745117192	160.6414031982422	1071.171264648438	1088.158447265625	207.0495147705079	1065.924194335938	995.0763549804692	196.4667205810548	1026.8154296875	942.8069458007817	210.6192016601564	1245.312622070313	638.6408691406252	26.16177368164064	1338.772583007813	321.0218505859376	51.36726760864261	
150	0.745	1140.182739257813	1369.671752929688	157.2590484619141	1154.186401367188	1292.362548828125	293.1867065429689	1247.843139648438	1275.715942382813	110.1866302490235	1295.550048828125	1096.565673828125	116.0587310791016	1245.324340820313	869.3417358398442	293.9020080566407	1252.610473632813	892.967407226563	78.03125000000003	1057.771362304688	527.410095214844	278.5269470214845	1103.47998046875	567.555847167969	288.5358276367189	843.910522460938	378.740447998047	236.1383361816407	660.8032226562502	312.2791748046876	123.4856491088868	652.3557128906252	168.8426208496094	197.6668853759767	678.1752929687502	139.4513854980469	152.955795288086	1257.704467773438	578.1501464843752	44.71252441406251	1312.741943359375	632.1469726562502	27.7529983520508	1381.477905273438	245.4065704345704	62.55721282958987	1407.556884765625	287.5350646972657	62.28573989868167	1410.4384765625	84.89773559570315	122.0905990600587	1599.024169921876	85.29228210449222	127.1722030639649	1562.685668945313	61.2477951049805	85.56409454345706	1068.406860351563	964.9833984375005	237.2408599853517	1069.60205078125	602.901550292969	301.1636962890626	904.407836914063	366.4241027832032	238.6751403808595	834.3056030273442	331.5636596679689	220.9668273925782	1062.4638671875	960.5349731445317	152.8488922119141	1050.925659179688	945.079467773438	160.9663696289063	1088.114624023438	1086.673461914063	206.7857208251954	1082.850830078125	992.9328002929692	196.1782531738282	1044.247314453125	940.447875976563	211.0520935058595	1263.257690429688	636.3817138671877	26.21216964721681	1355.417114257813	319.6169433593751	52.25940322875979	
151	0.75	1157.522338867188	1367.825073242188	156.8473663330079	1171.474243164063	1290.905883789063	292.9675292968751	1265.112060546875	1273.878784179688	110.0940551757813	1312.617431640625	1094.616577148438	116.4055099487305	1263.437377929688	868.5153198242192	294.1040649414064	1269.757934570313	891.1594238281255	77.90183258056643	1080.32666015625	524.0249633789065	280.3240661621095	1125.652465820313	564.7349243164065	289.7467651367189	864.5465698242192	380.5054016113282	236.9010467529298	679.091491699219	317.577850341797	122.9841995239258	669.8992309570315	175.5655975341797	199.7261962890626	695.8454589843752	145.193099975586	155.9813079833985	1276.24609375	575.9786376953127	45.38053512573244	1330.9501953125	630.0322875976565	27.55293083190919	1396.1689453125	243.2340545654298	63.66157913208011	1422.907836914063	284.8749084472657	63.6900444030762	1422.1376953125	82.12942504882815	123.7721176147462	1610.437011718751	79.5656661987305	129.4987182617188	1574.056152343751	55.92041397094729	87.91074371337893	1085.4521484375	962.3771972656255	237.1618499755861	1091.490112304688	599.6600341796877	302.7930297851564	924.437377929688	366.4449157714845	240.2282257080079	853.5469360351567	333.5863647460939	222.0692443847657	1079.478393554688	957.514770507813	152.7645263671876	1067.962768554688	941.8069458007817	161.3131713867188	1105.061767578125	1084.929565429688	206.5403442382814	1099.6787109375	990.3562011718755	195.9132385253907	1061.614501953125	937.6395874023442	211.5088500976564	1281.3740234375	634.0585937500002	26.38865280151369	1371.447875976563	317.8156127929689	53.11771392822268	
